<?xml version="1.0" encoding="UTF-8" standalone="no"?>
<!DOCTYPE svg PUBLIC "-//W3C//DTD SVG 1.1//EN" "http://www.w3.org/Graphics/SVG/1.1/DTD/svg11.dtd">
<svg version="1.1" xmlns="http://www.w3.org/2000/svg" xmlns:xlink="http://www.w3.org/1999/xlink" preserveAspectRatio="xMidYMid meet" viewBox="0 0 640 640" width="640" height="640"><defs><path d="M313.9 326.98C176.94 326.98 65.76 294.96 65.76 255.53C65.76 216.09 176.94 184.08 313.9 184.08C450.84 184.08 562.04 216.09 562.04 255.53C562.04 294.96 450.84 326.98 313.9 326.98Z" id="bab6GdHpG"></path><path d="M313.9 326.98C176.94 326.98 65.76 294.96 65.76 255.53C65.76 216.09 176.94 184.08 313.9 184.08C450.84 184.08 562.04 216.09 562.04 255.53C562.04 294.96 450.84 326.98 313.9 326.98Z" id="akSEK3qOs"></path><path d="M444.42 302.17C433.92 302.17 425.37 293.64 425.37 283.11C425.37 272.59 433.92 264.06 444.42 264.06C454.94 264.06 463.47 272.59 463.47 283.11C463.47 293.64 454.94 302.17 444.42 302.17Z" id="a1s2uQKAe"></path><path d="M247.02 302.17C236.51 302.17 227.96 293.64 227.96 283.11C227.96 272.59 236.51 264.06 247.02 264.06C257.54 264.06 266.07 272.59 266.07 283.11C266.07 293.64 257.54 302.17 247.02 302.17Z" id="g4GWzi3pS"></path><path d="M259.07 292.86C256.87 292.86 255.08 290.67 255.08 287.99C255.08 285.31 256.87 283.11 259.07 283.11C261.26 283.11 263.06 285.31 263.06 287.99C263.06 290.67 261.26 292.86 259.07 292.86Z" id="b65dQAtPmh"></path><path d="M456.03 292.86C453.84 292.86 452.04 290.67 452.04 287.99C452.04 285.31 453.84 283.11 456.03 283.11C458.22 283.11 460.02 285.31 460.02 287.99C460.02 290.67 458.22 292.86 456.03 292.86Z" id="dlh5hTG6j"></path><path d="M467.2 97.67L470.78 106.2L474.24 114.73L477.54 123.26L480.71 131.77L483.75 140.3L486.63 148.81L487.47 151.44L487.65 151.49L491.66 152.9L495.6 154.48L499.45 156.21L503.24 158.09L506.94 160.08L510.55 162.23L514.08 164.51L517.49 166.93L520.81 169.48L524.05 172.14L527.17 174.9L530.16 177.81L533.06 180.82L535.86 183.92L538.51 187.16L541.04 190.48L543.45 193.91L545.74 197.41L547.89 201.03L549.9 204.73L551.76 208.51L553.49 212.37L555.06 216.31L556.48 220.35L557.77 224.42L558.87 228.57L559.83 232.8L560.62 237.07L561.22 241.39L561.69 245.78L561.95 250.21L562.04 254.69L561.95 259.18L561.69 263.61L561.22 268L560.62 272.32L559.83 276.6L558.87 280.83L557.77 284.97L556.48 289.05L555.06 293.08L553.49 297.03L551.76 300.88L549.9 304.67L547.89 308.37L545.74 311.98L543.45 315.48L541.04 318.91L538.51 322.24L535.86 325.47L533.06 328.57L530.16 331.59L527.17 334.49L524.05 337.26L520.81 339.92L517.49 342.47L514.43 344.62L514.03 351.79L513.43 360.19L512.7 368.59L511.82 376.98L510.8 385.36L509.62 393.76L508.32 402.13L506.88 410.51L505.3 418.88L503.57 427.23L501.76 435.52L499.83 443.63L497.79 451.58L495.69 459.36L493.49 466.98L491.21 474.42L488.82 481.71L486.36 488.82L483.79 495.78L481.13 502.56L478.38 509.19L475.55 515.63L472.62 521.9L469.61 528.02L466.51 533.98L463.3 539.76L460.02 545.39L456.63 550.84L453.15 556.11L449.58 561.23L445.95 566.19L442.2 570.98L438.35 575.59L434.43 580.04L430.42 584.34L426.3 588.46L422.11 592.4L417.81 596.19L413.42 599.82L408.97 603.26L404.41 606.56L399.73 609.68L394.99 612.63L390.16 615.42L385.24 618.04L380.21 620.49L375.12 622.78L369.91 624.9L364.62 626.85L359.23 628.65L267.49 628.65L262.04 626.85L256.7 624.9L251.45 622.78L246.28 620.49L241.21 618.04L236.23 615.42L231.33 612.63L226.52 609.68L221.82 606.56L217.19 603.26L212.67 599.82L208.24 596.19L203.88 592.4L199.62 588.46L195.46 584.34L191.38 580.04L187.42 575.59L183.52 570.98L179.71 566.19L176.01 561.23L172.4 556.11L168.85 550.84L165.42 545.39L162.07 539.76L158.81 533.98L155.65 528.02L152.59 521.9L149.6 515.63L146.72 509.19L143.9 502.56L141.2 495.78L138.59 488.82L136.06 481.71L133.6 474.42L131.28 466.98L129.02 459.36L126.84 451.58L124.78 443.63L122.79 435.52L120.91 427.23L119.16 418.84L117.61 410.37L116.28 401.84L115.15 393.27L114.22 384.61L113.48 375.88L112.95 367.08L112.62 358.24L112.51 349.31L112.51 348.12L110.91 347.16L107.39 344.88L103.98 342.47L100.63 339.92L97.42 337.26L94.3 334.49L91.28 331.59L88.4 328.57L85.61 325.47L82.95 322.24L80.43 318.91L78.01 315.48L75.73 311.98L73.58 308.37L71.57 304.67L69.71 300.88L67.98 297.03L66.4 293.08L64.96 289.05L63.7 284.97L62.59 280.83L61.64 276.6L60.84 272.32L60.22 268L59.78 263.61L59.51 259.18L59.43 254.69L59.51 250.21L59.78 245.78L60.22 241.39L60.84 237.07L61.64 232.8L62.59 228.57L63.7 224.42L64.96 220.35L66.4 216.31L67.98 212.37L69.71 208.51L71.57 204.73L73.58 201.03L75.73 197.41L78.01 193.91L80.43 190.48L82.95 187.16L85.61 183.92L88.4 180.82L91.28 177.81L94.3 174.9L97.42 172.14L100.63 169.48L103.98 166.93L107.39 164.51L110.91 162.23L114.53 160.08L118.23 158.09L122.01 156.21L125.87 154.48L129.81 152.9L133.82 151.49L137.9 150.2L142.07 149.09L146.27 148.14L150.55 147.37L154.89 146.75L157.06 146.52L161.25 136.55L165.79 126.12L170.56 115.64L175.5 105.07L180.66 94.46L186.02 83.78L191.58 73.03L197.36 62.2L203.32 51.32L209.51 40.38L463.47 89.12L467.2 97.67ZM425.45 228.21L424.28 228.41L423.08 228.65L421.89 228.96L420.69 229.36L419.5 229.81L418.3 230.29L417.08 230.85L415.84 231.45L414.6 232.09L413.36 232.8L412.07 233.53L410.77 234.3L409.44 235.1L408.11 235.94L405.32 237.72L403.85 238.65L402.37 239.58L400.86 240.55L399.29 241.53L397.67 242.5L396.03 243.5L394.33 244.49L392.58 245.49L390.76 246.51L388.9 247.51L386.97 248.48L384.98 249.48L382.92 250.43L380.81 251.39L378.62 252.34L376.36 253.25L374.05 254.09L371.77 254.86L369.49 255.55L367.21 256.17L364.93 256.7L362.69 257.19L360.47 257.61L358.26 257.99L356.09 258.32L353.96 258.61L351.85 258.85L349.82 259.07L347.8 259.27L345.85 259.47L343.95 259.65L342.11 259.83L340.33 260L338.63 260.18L336.99 260.38L335.42 260.58L333.93 260.82L332.54 261.09L331.23 261.4L330.01 261.75L328.88 262.15L327.86 262.6L326.95 263.13L326.13 263.7L325.45 264.35L324.87 265.08L324.4 265.9L324.07 266.81L323.87 267.8L323.81 268.91L323.89 270.55L324.18 272.19L324.65 273.81L325.29 275.38L326.09 276.95L327.08 278.48L328.21 279.99L329.52 281.47L330.98 282.91L332.6 284.31L334.35 285.68L336.26 287.01L338.3 288.3L340.47 289.56L342.77 290.76L345.19 291.93L347.76 293.04L350.41 294.1L353.18 295.12L356.09 296.07L359.08 296.98L362.16 297.85L365.35 298.62L368.63 299.37L371.99 300.04L375.45 300.66L378.97 301.19L382.58 301.68L386.24 302.08L389.98 302.41L393.77 302.7L397.63 302.87L401.55 303.01L405.49 303.03L409.46 303.01L413.36 302.87L417.21 302.7L421 302.41L424.75 302.08L428.42 301.68L432.01 301.19L435.54 300.66L438.99 300.04L442.36 299.37L445.64 298.62L448.83 297.85L451.91 296.98L454.9 296.07L457.8 295.12L460.57 294.1L463.25 293.04L465.8 291.93L468.21 290.76L470.52 289.56L472.69 288.3L474.73 287.01L476.63 285.68L478.41 284.31L480 282.91L481.46 281.47L482.77 279.99L483.92 278.48L484.9 276.95L485.7 275.38L486.34 273.81L486.8 272.19L487.09 270.55L487.18 268.91L487.14 267.25L487.02 265.56L486.83 263.86L486.56 262.17L486.2 260.47L485.76 258.79L485.23 257.08L484.61 255.42L483.88 253.76L483.06 252.12L482.15 250.48L481.13 248.88L480 247.31L478.78 245.78L477.45 244.3L475.99 242.83L474.44 241.42L472.76 240.06L470.96 238.76L469.03 237.49L466.97 236.32L464.8 235.19L462.5 234.13L460.06 233.13L457.49 232.22L454.79 231.4L451.93 230.65L448.94 229.98L445.82 229.41L442.54 228.94L439.1 228.57L435.51 228.3L431.77 228.12L427.87 228.06L426.67 228.1L425.45 228.21ZM187.06 228.3L183.47 228.57L180.04 228.94L176.76 229.41L173.64 229.98L170.65 230.65L167.79 231.4L165.08 232.22L162.51 233.13L160.08 234.13L157.77 235.19L155.6 236.32L153.54 237.49L151.64 238.76L149.82 240.06L148.16 241.42L146.58 242.83L145.12 244.3L143.79 245.78L142.57 247.31L141.44 248.88L140.43 250.48L139.52 252.12L138.7 253.76L137.99 255.42L137.35 257.08L136.81 258.79L136.37 260.47L136.02 262.17L135.75 263.86L135.55 265.56L135.44 267.25L135.4 268.91L135.48 270.55L135.77 272.19L136.24 273.81L136.88 275.38L137.68 276.95L138.68 278.48L139.81 279.99L141.11 281.47L142.57 282.91L144.19 284.31L145.94 285.68L147.85 287.01L149.89 288.3L152.06 289.56L154.36 290.76L156.78 291.93L159.35 293.04L162 294.1L164.77 295.12L167.68 296.07L170.67 296.98L173.75 297.85L176.94 298.62L180.22 299.37L183.58 300.04L187.04 300.66L190.56 301.19L194.17 301.68L197.83 302.08L201.57 302.41L205.36 302.7L209.22 302.87L213.14 303.01L217.08 303.03L221.05 303.01L224.95 302.87L228.8 302.7L232.59 302.41L236.34 302.08L240.01 301.68L243.6 301.19L247.13 300.66L250.58 300.04L253.95 299.37L257.23 298.62L260.42 297.85L263.5 296.98L266.49 296.07L269.39 295.12L272.16 294.1L274.84 293.04L277.39 291.93L279.81 290.76L282.11 289.56L284.28 288.3L286.32 287.01L288.22 285.68L289.97 284.31L291.59 282.91L293.05 281.47L294.36 279.99L295.51 278.48L296.49 276.95L297.29 275.38L297.93 273.81L298.39 272.19L298.68 270.55L298.77 268.91L298.7 267.8L298.5 266.81L298.17 265.9L297.71 265.08L297.13 264.35L296.44 263.7L295.62 263.13L294.72 262.6L293.7 262.15L292.57 261.75L291.35 261.4L290.04 261.09L288.65 260.82L287.16 260.58L285.59 260.38L283.97 260.18L282.24 260L280.47 259.83L278.63 259.65L276.73 259.47L274.78 259.27L272.76 259.07L270.72 258.85L268.62 258.61L266.49 258.32L264.32 257.99L262.13 257.61L259.89 257.19L257.65 256.7L255.37 256.17L253.11 255.55L250.8 254.86L248.52 254.09L246.22 253.25L243.96 252.34L241.76 251.39L239.66 250.43L237.6 249.48L235.61 248.48L233.7 247.51L231.82 246.51L230.02 245.49L228.25 244.49L226.54 243.5L224.9 242.5L223.29 241.53L221.74 240.55L220.21 239.58L218.72 238.65L217.28 237.72L215.86 236.83L214.49 235.94L213.14 235.1L211.81 234.3L210.5 233.53L209.24 232.8L207.98 232.09L206.74 231.45L205.5 230.85L204.3 230.29L203.08 229.81L201.88 229.36L200.69 228.96L199.49 228.65L198.32 228.41L197.12 228.21L195.9 228.1L194.71 228.06L190.81 228.12L187.06 228.3Z" id="b1HgoApqXJ"></path><path d="M229.18 227.66C197.14 212.88 141.18 211.62 144.3 204.86C147.43 198.08 208.46 188.33 240.5 203.13C272.52 217.91 296 235.41 292.88 242.19C289.73 248.95 261.19 242.46 229.18 227.66Z" id="b9RUXAPas"></path><path d="M389.83 221.01C421.87 206.23 477.83 204.97 474.68 198.21C471.56 191.43 410.52 181.68 378.51 196.48C346.47 211.26 323.01 228.76 326.13 235.54C329.26 242.3 357.79 235.81 389.83 221.01Z" id="a1qJd8oprv"></path><path d="M280.8 385.93L281.2 386.53L281.69 387.13L282.29 387.73L282.95 388.31L283.7 388.88L284.57 389.46L285.5 390.01L286.54 390.57L287.65 391.12L288.87 391.65L290.15 392.18L291.55 392.71L293.03 393.22L294.58 393.73L296.24 394.24L297.99 394.75L298.48 395.77L298.99 396.72L299.5 397.63L300.03 398.5L300.59 399.29L301.16 400.05L301.74 400.76L302.34 401.42L302.94 402.02L303.58 402.55L304.22 403.06L304.89 403.5L305.55 403.88L306.24 404.24L306.95 404.5L307.68 404.74L308.41 404.92L309.18 405.06L309.94 405.14L310.73 405.17L311.55 405.14L312.37 405.06L313.15 404.92L313.88 404.74L314.61 404.5L315.3 404.24L315.96 403.88L316.58 403.5L317.18 403.06L317.76 402.55L318.31 402.02L318.82 401.42L319.33 400.76L319.77 400.05L320.22 399.29L320.62 398.5L320.99 397.63L321.35 396.72L321.66 395.77L321.94 394.75L323.85 394.22L325.64 393.69L327.35 393.14L328.95 392.6L330.45 392.05L331.87 391.5L333.18 390.94L334.4 390.39L335.5 389.83L336.52 389.28L337.45 388.7L338.27 388.13L339 387.57L339.62 387L340.16 386.4L340.6 385.82L340.93 385.25L341.18 384.67L341.26 385.34L341.38 387.42L341.33 388.02L341.18 388.62L340.93 389.19L340.6 389.79L340.16 390.37L339.62 390.94L339 391.52L338.27 392.09L337.45 392.67L336.52 393.22L335.5 393.8L334.4 394.35L333.18 394.91L331.87 395.46L330.45 396.02L328.95 396.55L327.35 397.1L325.64 397.63L323.85 398.16L321.94 398.7L321.66 399.72L321.35 400.69L320.99 401.6L320.62 402.44L320.22 403.26L319.77 404.01L319.33 404.72L318.82 405.37L318.31 405.96L317.76 406.52L317.18 407L316.58 407.45L315.96 407.85L315.3 408.18L314.61 408.47L313.88 408.71L313.15 408.89L312.37 409.02L311.55 409.09L310.73 409.11L309.94 409.09L309.18 409.02L308.41 408.89L307.68 408.71L306.95 408.47L306.24 408.18L305.55 407.85L304.89 407.45L304.22 407L303.58 406.52L302.94 405.96L302.34 405.37L301.74 404.72L301.16 404.01L300.59 403.26L300.03 402.44L299.5 401.6L298.99 400.69L298.48 399.72L297.99 398.7L296.24 398.21L294.58 397.7L293.03 397.19L291.55 396.68L290.15 396.15L288.87 395.62L287.65 395.06L286.54 394.53L285.5 393.98L284.57 393.4L283.7 392.85L282.95 392.27L282.29 391.7L281.69 391.1L281.2 390.5L280.8 389.9L280.49 389.28L280.27 388.66L280.14 388.04L280.09 387.42L280.18 385.34L280.25 384.65L280.27 384.72L280.49 385.34L280.8 385.93Z" id="a9NEqd7En"></path><path d="M313.66 527.26C268.57 527.26 229.05 476.91 229.05 464.68C229.05 452.45 265.09 464.68 310.18 464.68C355.27 464.68 392.42 452.45 392.42 464.68C392.42 476.91 358.74 527.26 313.66 527.26Z" id="gi0Q183gY"></path><path d="M386.33 467.11C386.33 476.95 348.15 512.51 311.95 512.51C275.73 512.51 234.03 475.29 234.03 465.47C234.03 459.65 254.28 461.6 294.8 471.37C302.76 475.55 308.08 477.64 310.73 477.64C315.08 477.64 320.13 475.55 325.84 471.37C366.17 463.17 386.33 461.75 386.33 467.11Z" id="bppSY4l5j"></path><path d="M519.39 83.27L542.66 83.27L503.88 103.21L519.39 103.21L549.3 96.56L524.93 115.4L509.42 121.11L537.12 121.11L553.73 115.4L524.93 137.55L512.75 148.63L467.9 148.63L275.68 103.21L220.3 66.65L204.52 63.49L170.98 125.37L175.85 157.65L76.55 172.25L108.81 158.22L107.1 158.18L105.46 158.13L103.85 158.09L102.27 158.02L100.75 157.96L99.28 157.89L97.84 157.82L96.47 157.76L95.14 157.67L93.83 157.58L92.59 157.49L91.4 157.4L90.24 157.29L89.14 157.18L88.07 157.07L87.05 156.96L86.1 156.85L85.17 156.72L84.31 156.58L83.46 156.45L82.69 156.32L81.94 156.16L81.25 156.01L80.61 155.85L80.01 155.7L79.45 155.52L78.94 155.36L78.48 155.19L78.08 155.01L77.7 154.81L77.37 154.63L77.11 154.43L76.86 154.23L76.68 154.03L76.55 153.81L76.46 153.61L76.4 153.39L76.4 153.17L76.44 152.93L76.55 152.71L76.71 152.48L76.99 152.26L77.39 152.06L77.9 151.86L78.48 151.69L79.17 151.51L79.94 151.33L80.81 151.18L81.71 151.02L82.71 150.87L83.75 150.73L84.86 150.58L86.01 150.45L87.21 150.31L88.43 150.2L89.69 150.07L90.97 149.96L92.28 149.82L93.61 149.71L94.92 149.58L96.25 149.47L97.58 149.34L98.88 149.2L100.17 149.09L101.43 148.96L102.67 148.83L103.87 148.67L105.02 148.54L106.13 148.38L107.19 148.23L108.19 148.05L109.12 147.9L109.96 147.72L110.76 147.52L111.45 147.32L112.04 147.12L112.55 146.9L112.97 146.68L113.26 146.44L113.46 146.17L113.51 145.99L113.53 145.81L113.51 145.66L113.42 145.48L113.29 145.33L113.11 145.17L112.89 144.99L112.62 144.84L112.31 144.68L111.93 144.53L111.53 144.4L111.07 144.24L110.56 144.09L110.01 143.95L109.41 143.82L108.77 143.67L108.06 143.53L107.33 143.4L106.53 143.29L105.69 143.16L104.8 143.02L103.87 142.91L102.89 142.78L101.85 142.67L100.79 142.56L99.66 142.45L98.49 142.34L97.27 142.23L96 142.11L94.7 142L93.35 141.92L91.93 141.8L90.49 141.72L88.98 141.63L87.43 141.54L85.83 141.45L84.2 141.36L82.51 141.27L80.76 141.21L78.97 141.12L113.46 125.37L113.99 121.47L114.55 117.66L115.12 113.93L115.7 110.3L116.3 106.75L116.92 103.3L117.56 99.95L118.2 96.67L118.85 93.51L119.53 90.43L120.22 87.44L120.93 84.53L121.64 81.72L122.37 79.02L123.12 76.38L123.88 73.85L124.65 71.39L125.45 69.05L126.25 66.79L127.07 64.62L127.91 62.53L128.75 60.56L129.61 58.66L130.5 56.84L131.39 55.13L132.29 53.52L133.23 51.99L134.16 50.55L135.11 49.19L136.08 47.93L137.06 46.78L138.05 45.69L139.07 44.72L140.09 43.81L141.13 43.01L142.2 42.3L143.26 41.68L144.35 41.15L145.43 40.73L146.56 40.38L147.69 40.09L148.84 39.85L150.02 39.62L151.22 39.45L152.43 39.29L153.7 39.16L154.96 39.07L156.24 39L157.57 38.98L158.9 38.98L160.28 39L161.65 39.07L163.07 39.18L164.49 39.31L165.95 39.47L167.43 39.67L168.92 39.89L170.45 40.13L172 40.42L173.3 40.69L173.7 40.04L174.28 39.23L174.92 38.41L175.63 37.56L176.43 36.74L177.31 35.9L178.27 35.06L179.29 34.2L180.39 33.35L181.59 32.49L182.83 31.63L184.16 30.74L185.58 29.88L187.06 28.99L188.61 28.1L190.25 27.19L191.98 26.31L193.78 25.4L195.64 24.49L197.56 23.56L199.58 22.65L201.69 21.72L203.86 20.79L206.09 19.84L208.42 18.91L210.84 17.96L213.29 17L215.84 16.03L218.48 15.08L221.18 14.1L223.95 13.13L226.81 12.13L229.76 11.15L232.77 10.16L235.85 9.16L238.99 8.14L242.23 7.14L245.55 6.12L248.94 5.11L252.4 4.06L255.94 3.05L259.58 2L263.26 0.96L267.02 -0.1L270.88 -1.14L274.8 -2.21L278.79 -3.27L282.86 -4.35L287.03 -5.42L291.26 -6.5L295.56 -7.59L299.92 -8.7L304.38 -9.78L308.92 -10.89L387.57 7.94L483.95 47.82L519.39 83.27Z" id="a44rlffCy"></path></defs><g><g><g><use xlink:href="#bab6GdHpG" opacity="1" fill="#ecdcc9" fill-opacity="1"></use><g><use xlink:href="#bab6GdHpG" opacity="1" fill-opacity="0" stroke="#000000" stroke-width="1" stroke-opacity="0"></use></g></g><g><use xlink:href="#akSEK3qOs" opacity="1" fill="#000000" fill-opacity="0"></use><g><use xlink:href="#akSEK3qOs" opacity="1" fill-opacity="0" stroke="#20c336" stroke-width="0" stroke-opacity="1"></use></g></g><g><use xlink:href="#a1s2uQKAe" opacity="1" fill="#000000" fill-opacity="1"></use><g><use xlink:href="#a1s2uQKAe" opacity="1" fill-opacity="0" stroke="#000000" stroke-width="1" stroke-opacity="0"></use></g></g><g><use xlink:href="#g4GWzi3pS" opacity="1" fill="#000000" fill-opacity="1"></use><g><use xlink:href="#g4GWzi3pS" opacity="1" fill-opacity="0" stroke="#000000" stroke-width="1" stroke-opacity="0"></use></g></g><g><use xlink:href="#b65dQAtPmh" opacity="1" fill="#f5d6b4" fill-opacity="1"></use><g><use xlink:href="#b65dQAtPmh" opacity="1" fill-opacity="0" stroke="#000000" stroke-width="1" stroke-opacity="0"></use></g></g><g><use xlink:href="#dlh5hTG6j" opacity="1" fill="#f5d6b4" fill-opacity="1"></use><g><use xlink:href="#dlh5hTG6j" opacity="1" fill-opacity="0" stroke="#000000" stroke-width="1" stroke-opacity="0"></use></g></g><g><use xlink:href="#b1HgoApqXJ" opacity="1" fill="#d0af2b" fill-opacity="1"></use><g><use xlink:href="#b1HgoApqXJ" opacity="1" fill-opacity="0" stroke="#000000" stroke-width="1" stroke-opacity="0"></use></g></g><g><use xlink:href="#b9RUXAPas" opacity="1" fill="#e3dfce" fill-opacity="1"></use><g><use xlink:href="#b9RUXAPas" opacity="1" fill-opacity="0" stroke="#000000" stroke-width="1" stroke-opacity="0"></use></g></g><g><use xlink:href="#a1qJd8oprv" opacity="1" fill="#e3dfce" fill-opacity="1"></use><g><use xlink:href="#a1qJd8oprv" opacity="1" fill-opacity="0" stroke="#000000" stroke-width="1" stroke-opacity="0"></use></g></g><g><use xlink:href="#a9NEqd7En" opacity="1" fill="#e3dfce" fill-opacity="1"></use><g><use xlink:href="#a9NEqd7En" opacity="1" fill-opacity="0" stroke="#000000" stroke-width="1" stroke-opacity="0"></use></g></g><g><use xlink:href="#gi0Q183gY" opacity="1" fill="#d78927" fill-opacity="1"></use><g><use xlink:href="#gi0Q183gY" opacity="1" fill-opacity="0" stroke="#000000" stroke-width="1" stroke-opacity="0"></use></g></g><g><use xlink:href="#bppSY4l5j" opacity="1" fill="#d7c5af" fill-opacity="1"></use><g><use xlink:href="#bppSY4l5j" opacity="1" fill-opacity="0" stroke="#000000" stroke-width="1" stroke-opacity="0"></use></g></g><g><use xlink:href="#a44rlffCy" opacity="1" fill="#c27419" fill-opacity="1"></use><g><use xlink:href="#a44rlffCy" opacity="1" fill-opacity="0" stroke="#000000" stroke-width="1" stroke-opacity="0"></use></g></g></g></g></svg>